<?xml version="1.0" encoding="utf-8"?>
<svg xmlns="http://www.w3.org/2000/svg" width="271" height="271" viewBox="0 0 271 271" fill="none">
<rect x="0.5" y="0.5" width="270" height="270" rx="11.5" fill="black"/>
<rect x="0.5" y="0.5" width="270" height="270" rx="11.5" stroke="#262626"/>
<g clip-path="url(#clip0_396_3779)">
<path d="M87.2415 141.298C87.2323 143.273 86.7425 145.217 85.8145 146.96C84.8865 148.704 83.5481 150.196 81.9148 151.307C80.2815 152.417 78.4025 153.114 76.4398 153.337C74.4771 153.559 72.4897 153.3 70.6493 152.583C68.8088 151.866 67.1705 150.712 65.8758 149.22C64.5811 147.728 63.6688 145.944 63.2178 144.021C62.7668 142.098 62.7905 140.094 63.2869 138.182C63.7833 136.27 64.7376 134.508 66.0672 133.047L57.8162 141.298L53.4869 136.989L62.7967 127.783C63.414 127.167 63.901 126.432 64.2289 125.624C64.5568 124.815 64.7188 123.949 64.7053 123.076V111.5H70.8091V123.071C70.8365 124.746 70.5207 126.409 69.8813 127.957C69.2419 129.505 68.2924 130.906 67.0912 132.073L66.8178 132.346C68.5629 130.761 70.7296 129.715 73.0563 129.334C75.3829 128.953 77.7701 129.254 79.9297 130.2C82.0892 131.146 83.9287 132.696 85.2262 134.665C86.5237 136.634 87.2236 138.936 87.2415 141.293V141.298ZM81.7193 141.293C81.7232 139.978 81.3374 138.692 80.6105 137.597C79.8837 136.501 78.8485 135.646 77.6356 135.138C76.4228 134.631 75.0867 134.494 73.7963 134.746C72.5059 134.997 71.319 135.626 70.3856 136.551C69.4521 137.477 68.814 138.659 68.5519 139.947C68.2897 141.236 68.4153 142.573 68.9127 143.79C69.4102 145.007 70.2571 146.049 71.3467 146.785C72.4362 147.52 73.7193 147.917 75.034 147.924C75.9083 147.932 76.7754 147.766 77.5856 147.438C78.3957 147.109 79.1327 146.623 79.7541 146.008C80.3756 145.393 80.8692 144.661 81.2064 143.854C81.5437 143.048 81.718 142.182 81.7193 141.308" fill="#01FF95"/>
<path d="M107.288 129.434C109.846 129.434 111.834 129.969 113.252 131.039C114.403 131.986 115.147 133.338 115.332 134.818C115.517 136.297 115.129 137.79 114.246 138.992C113.408 139.946 112.271 140.588 111.02 140.811C114.52 141.414 116.268 143.252 116.264 146.323C116.302 147.242 116.117 148.156 115.725 148.988C115.333 149.82 114.745 150.544 114.013 151.1C112.508 152.26 110.364 152.838 107.581 152.835H98.7184V129.473L107.288 129.434ZM102.541 139.375H107.387C108.48 139.443 109.562 139.125 110.444 138.475C110.804 138.172 111.089 137.79 111.277 137.359C111.465 136.928 111.55 136.459 111.527 135.99C111.551 135.524 111.466 135.06 111.277 134.633C111.089 134.207 110.804 133.83 110.444 133.534C109.558 132.894 108.478 132.581 107.387 132.65H102.541V139.375ZM102.541 149.599H107.621C109.132 149.599 110.291 149.292 111.1 148.679C111.496 148.385 111.813 147.998 112.026 147.553C112.238 147.108 112.338 146.617 112.318 146.125C112.35 145.613 112.255 145.101 112.041 144.634C111.828 144.168 111.503 143.761 111.095 143.45C110.068 142.769 108.846 142.441 107.616 142.516H102.541V149.599Z" fill="#01FF95"/>
<path d="M118.059 139.673C118.722 138.387 119.742 137.321 120.996 136.601C122.317 135.86 123.811 135.484 125.325 135.512C126.838 135.48 128.335 135.822 129.685 136.507C130.925 137.154 131.959 138.137 132.667 139.345C133.41 140.659 133.796 142.145 133.785 143.654C133.783 144.113 133.75 144.571 133.686 145.026H120.782V145.225C120.798 146.537 121.297 147.797 122.184 148.764C122.625 149.204 123.153 149.547 123.734 149.771C124.315 149.996 124.937 150.096 125.559 150.066C126.552 150.102 127.532 149.828 128.362 149.281C129.116 148.751 129.647 147.961 129.854 147.064H133.457C133.177 148.752 132.279 150.276 130.937 151.338C129.479 152.481 127.664 153.073 125.813 153.009C124.191 153.047 122.587 152.673 121.15 151.92C119.849 151.225 118.78 150.161 118.078 148.863C117.33 147.457 116.955 145.883 116.99 144.29C116.955 142.685 117.317 141.095 118.044 139.663L118.059 139.673ZM130.087 142.387C129.989 141.256 129.454 140.207 128.596 139.464C127.706 138.743 126.584 138.369 125.44 138.41C124.322 138.387 123.234 138.774 122.383 139.499C121.956 139.858 121.604 140.298 121.348 140.793C121.092 141.289 120.937 141.831 120.892 142.387H130.087Z" fill="#01FF95"/>
<path d="M151.247 149.678V152.815H149.343C148.229 152.815 147.428 152.581 146.937 152.114C146.681 151.843 146.483 151.523 146.358 151.172C146.232 150.821 146.18 150.448 146.206 150.076C145.608 151.021 144.771 151.79 143.779 152.307C142.788 152.824 141.677 153.069 140.56 153.018C138.646 153.018 137.106 152.571 135.952 151.681C135.387 151.255 134.934 150.698 134.631 150.059C134.328 149.419 134.185 148.715 134.213 148.008C134.172 147.231 134.321 146.455 134.646 145.747C134.972 145.04 135.464 144.422 136.082 143.947C137.328 143.003 139.15 142.531 141.549 142.531H145.859V141.492C145.878 141.065 145.799 140.64 145.627 140.249C145.454 139.858 145.193 139.513 144.864 139.24C144.064 138.651 143.083 138.361 142.091 138.42C141.18 138.383 140.279 138.622 139.506 139.106C139.187 139.307 138.913 139.573 138.702 139.886C138.491 140.199 138.349 140.553 138.284 140.925H134.745C134.804 140.135 135.039 139.369 135.432 138.681C135.825 137.993 136.366 137.401 137.016 136.949C138.342 136.005 140.089 135.531 142.26 135.527C144.55 135.527 146.319 136.063 147.568 137.133C148.818 138.203 149.442 139.739 149.442 141.74V148.49C149.442 149.291 149.82 149.693 150.576 149.693L151.247 149.678ZM145.839 145.205H141.365C140.462 145.149 139.563 145.377 138.795 145.856C138.496 146.076 138.256 146.367 138.098 146.703C137.94 147.039 137.869 147.409 137.891 147.78C137.881 148.121 137.954 148.461 138.102 148.769C138.251 149.077 138.472 149.344 138.746 149.549C139.422 150.028 140.24 150.263 141.067 150.215C142.34 150.291 143.592 149.858 144.546 149.012C144.969 148.594 145.301 148.094 145.522 147.543C145.743 146.991 145.85 146.4 145.834 145.806L145.839 145.205Z" fill="#01FF95"/>
<path d="M152.668 138.887H149.686V135.716H152.668V130.94H156.306V135.716H160.417V138.887H156.306V147.804C156.256 148.312 156.4 148.82 156.709 149.226C156.897 149.384 157.115 149.502 157.35 149.573C157.585 149.645 157.832 149.669 158.076 149.644H160.815V152.815H157.335C155.712 152.815 154.527 152.437 153.781 151.681C153.036 150.926 152.663 149.753 152.663 148.172L152.668 138.887Z" fill="#01FF95"/>
<path d="M175.095 136.566C176.33 137.276 177.329 138.334 177.968 139.608C178.685 141.054 179.04 142.652 179.002 144.265C179.036 145.858 178.681 147.434 177.968 148.858C177.325 150.137 176.327 151.203 175.095 151.93C173.829 152.667 172.385 153.044 170.92 153.018C169.778 153.046 168.646 152.806 167.614 152.318C166.72 151.881 165.951 151.227 165.378 150.414V159.495H161.769V135.716H164.91L165.343 138.256C165.976 137.375 166.815 136.663 167.788 136.182C168.76 135.701 169.835 135.466 170.92 135.497C172.38 135.473 173.821 135.836 175.095 136.551V136.566ZM173.942 148.361C174.895 147.209 175.389 145.745 175.328 144.25C175.397 142.756 174.902 141.291 173.942 140.145C173.477 139.653 172.917 139.261 172.296 138.993C171.674 138.725 171.005 138.587 170.328 138.587C169.652 138.587 168.982 138.725 168.361 138.993C167.739 139.261 167.179 139.653 166.715 140.145C165.765 141.279 165.276 142.728 165.343 144.206C165.275 145.718 165.763 147.203 166.715 148.381C167.154 148.904 167.707 149.32 168.332 149.597C168.956 149.874 169.635 150.006 170.318 149.981C171.004 150.004 171.686 149.872 172.313 149.595C172.94 149.318 173.497 148.903 173.942 148.381" fill="#01FF95"/>
<path d="M184.265 151.93C182.961 151.232 181.892 150.163 181.194 148.858C180.478 147.439 180.105 145.872 180.105 144.283C180.105 142.694 180.478 141.127 181.194 139.708C181.895 138.4 182.963 137.326 184.265 136.616C185.675 135.889 187.238 135.509 188.823 135.509C190.409 135.509 191.972 135.889 193.381 136.616C194.684 137.327 195.753 138.401 196.458 139.708C197.171 141.127 197.542 142.694 197.542 144.283C197.542 145.872 197.171 147.438 196.458 148.858C195.757 150.162 194.686 151.231 193.381 151.93C191.969 152.646 190.407 153.019 188.823 153.019C187.24 153.019 185.678 152.646 184.265 151.93V151.93ZM192.482 148.356C193.381 147.182 193.869 145.744 193.869 144.265C193.869 142.786 193.381 141.349 192.482 140.175C192.029 139.654 191.466 139.241 190.832 138.967C190.199 138.692 189.513 138.563 188.823 138.589C188.137 138.562 187.452 138.69 186.822 138.965C186.192 139.239 185.632 139.653 185.185 140.175C184.295 141.353 183.813 142.789 183.813 144.265C183.813 145.742 184.295 147.178 185.185 148.356C185.632 148.878 186.192 149.292 186.822 149.566C187.452 149.841 188.137 149.969 188.823 149.942C189.513 149.968 190.199 149.839 190.832 149.564C191.466 149.29 192.029 148.877 192.482 148.356Z" fill="#01FF95"/>
<path d="M208.228 135.716V139.086H206.628C205.136 139.086 204.053 139.583 203.387 140.543C202.686 141.641 202.339 142.929 202.393 144.231V152.815H198.774V135.716H201.985L202.383 138.286C202.849 137.508 203.504 136.86 204.287 136.402C205.255 135.901 206.339 135.665 207.428 135.716H208.228Z" fill="#01FF95"/>
<path d="M209.396 130.94H213.005V135.716H217.145V138.887H213.005V147.804C212.956 148.311 213.097 148.818 213.402 149.226C213.592 149.383 213.811 149.501 214.046 149.573C214.282 149.644 214.529 149.669 214.774 149.644H217.513V152.815H214.034C212.41 152.815 211.23 152.437 210.495 151.681C209.759 150.926 209.391 149.753 209.391 148.172L209.396 130.94Z" fill="#01FF95"/>
</g>
<defs>
<clipPath id="clip0_396_3779">
<rect width="164.026" height="48" fill="white" transform="translate(53.4869 111.5)"/>
</clipPath>
</defs>
</svg>